<?xml version="1.0" encoding="utf-8"?>
<!-- Generator: Adobe Illustrator 24.3.0, SVG Export Plug-In . SVG Version: 6.00 Build 0)  -->
<svg version="1.1" id="Calque_1" xmlns="http://www.w3.org/2000/svg" xmlns:xlink="http://www.w3.org/1999/xlink" x="0px" y="0px"
	 viewBox="0 0 4706 3528" style="enable-background:new 0 0 4706 3528;" xml:space="preserve">
<style type="text/css">
	.st0{fill:#E08787;}
	.st1{fill:none;stroke:#E08787;stroke-width:3.0004;stroke-miterlimit:4.0005;}
</style>
<g transform="translate(0.000000,3528.000000) scale(0.100000,-0.100000)">
</g>
<g id="Rectangle_12" transform="matrix(0.966, -0.259, 0.259, 0.966, 0, 1085.487)">
	<path class="st0" d="M451.6-35.9l3134,0c292.7,0,530,237.3,530,530v1468c0,292.7-237.3,530-530,530h-3134
		c-292.7,0-530-237.3-530-530v-1468C-78.4,201.4,158.8-35.9,451.6-35.9z"/>
	<path class="st1" d="M451.6-34.4l3134,0c291.9,0,528.5,236.6,528.5,528.5v1468c0,291.9-236.6,528.5-528.5,528.5h-3134
		c-291.9,0-528.5-236.6-528.5-528.5v-1468C-76.9,202.2,159.7-34.4,451.6-34.4z"/>
</g>
</svg>
